<svg width="128" height="88" viewBox="0 0 128 88" fill="none" xmlns="http://www.w3.org/2000/svg">
<g opacity="0.5">
<path d="M6.90293 87.7851C6.44652 85.4423 6.07734 83.5404 5.64429 81.3146C24.8634 77.5933 38.6398 68.1087 41.8254 47.2439C41.0403 47.7766 40.2583 48.3171 39.4686 48.8421C23.9101 59.202 3.41987 51.0212 0.489809 33.1253C-1.29533 22.2155 1.73131 12.6608 10.6851 5.86787C19.9519 -1.1634 30.3341 -1.59487 40.7661 3.07654C53.8665 8.94112 60.3575 21.5628 58.7484 37.1394C55.9103 64.6165 39.6181 81.9516 11.8518 87.0234C10.3034 87.3069 8.73792 87.5047 6.90293 87.7835V87.7851Z" fill="white"/>
<path d="M75.9151 87.9999C75.4415 85.4952 75.0833 83.5996 74.6642 81.383C94.3335 77.8549 107.873 67.9498 111.766 46.7812C110.333 47.7267 109.493 48.2781 108.657 48.8342C99.0892 55.1957 87.0855 54.8328 78.4946 47.9199C70.0736 41.1441 66.8632 28.9632 70.7684 18.6048C75.602 5.78369 86.7428 -0.911124 101.039 0.416C113.578 1.57957 125.083 11.938 127.209 24.4335C130.868 45.9463 122.499 75.9437 88.0092 85.3021C84.1507 86.3488 80.1988 87.0545 75.9151 87.9999Z" fill="white"/>
</g>
</svg>
