<svg width="100%" height="100%" viewBox="0 0 40 40" fill="none" xmlns="http://www.w3.org/2000/svg">
<path fill-rule="evenodd" clip-rule="evenodd" d="M34.5268 27.8823L33.5447 26.2359L29.683 19.7629L28.6987 18.1129L21.9167 6.74465L21.838 6.61271L20.8994 5.03925L20.4248 4.24384C20.2309 3.91872 19.76 3.91872 19.566 4.24384L19.0915 5.03925L18.1528 6.6127L18.0741 6.74465L11.2922 18.1129L10.3079 19.7629L6.38529 26.338L5.39873 27.9918L2.58895 32.7017L2.48497 32.876L1.50077 34.5257L1.07137 35.2455C0.872547 35.5788 1.11268 36.0017 1.50077 36.0017H2.3389H4.25992H4.46288H35.528H35.7309H37.652H38.4901C38.8782 36.0017 39.1183 35.5788 38.9195 35.2455L38.4901 34.5257L37.5059 32.876L37.4019 32.7017L34.5268 27.8823ZM33.5593 32.7017L31.6928 29.5729L31.6749 29.543L8.26343 29.631L8.23274 29.6824L6.43157 32.7017H33.5593ZM10.2365 26.3236L29.7106 26.2504L26.849 21.4535L26.8247 21.4129H13.1661L13.1419 21.4535L10.2365 26.3236ZM15.1348 18.1129H24.8561L19.9954 9.96525L15.1348 18.1129Z" fill="#E32A2A"/>
</svg>
