<svg width="100%" height="100%" viewBox="0 0 40 40" fill="none" xmlns="http://www.w3.org/2000/svg">
<g id="icon_40">
<g id="Icon">
<path id="Vector" d="M25.832 5C21.6899 5 18.332 8.35833 18.332 12.5C18.332 16.6417 21.6899 20 25.832 20C29.9742 20 33.332 16.6417 33.332 12.5C33.332 8.35833 29.9742 5 25.832 5ZM13.332 6.66667C9.6502 6.66667 6.66536 9.65167 6.66536 13.3333C6.66536 17.015 9.6502 20 13.332 20C14.7144 20 16.0237 19.5783 17.134 18.8017C17.8885 18.275 18.078 17.2133 17.5507 16.4583C17.0234 15.7033 16.0135 15.5667 15.259 16.0933C14.7042 16.4817 14.0257 16.6667 13.332 16.6667C11.491 16.6667 9.9987 15.175 9.9987 13.3333C9.9987 11.4917 11.491 10 13.332 10C13.8757 10 14.373 10.12 14.8424 10.365C15.659 10.79 16.7094 10.5034 17.134 9.68668C17.5589 8.87168 17.2215 7.81998 16.405 7.39665C15.4632 6.90665 14.4144 6.66667 13.332 6.66667ZM25.832 8.33333C28.1332 8.33333 29.9987 10.1983 29.9987 12.5C29.9987 14.8017 28.1332 16.6667 25.832 16.6667C23.5309 16.6667 21.6654 14.8017 21.6654 12.5C21.6654 10.1983 23.5309 8.33333 25.832 8.33333ZM8.4362 22.24C5.37936 23.5016 3.33203 26.5933 3.33203 30V33.3333C3.33203 34.2533 4.0782 35 4.9987 35H11.6654C12.5859 35 13.332 34.2533 13.332 33.3333C13.332 32.4133 12.5859 31.6667 11.6654 31.6667H6.66536V30C6.66536 28.1267 7.77653 26.4067 9.05369 25.65C10.2549 26.1567 11.5255 26.54 12.6555 26.635C13.5729 26.7134 14.4 26.0217 14.4779 25.1033C14.5557 24.1867 13.8929 23.41 12.9757 23.3317C12.244 23.27 11.4444 23.05 10.5195 22.6567C10.2962 22.5617 10.1665 22.4867 9.73836 22.2917C9.31853 22.1 8.86253 22.0633 8.4362 22.24ZM20.1029 22.24C17.046 23.5016 14.9987 26.5933 14.9987 30V33.3333C14.9987 34.2533 15.7449 35 16.6654 35H34.9987C35.9192 35 36.6654 34.2533 36.6654 33.3333V30C36.6654 26.6733 34.6067 23.6567 31.5612 22.3433C31.1325 22.1583 30.633 22.1533 30.207 22.3433C28.7324 23.005 27.2957 23.3333 25.832 23.3333C24.3734 23.3333 22.9317 22.9867 21.405 22.2917C20.9852 22.1 20.5292 22.0633 20.1029 22.24ZM20.7437 25.65C22.3184 26.2467 24.2169 26.6667 25.832 26.6667C27.4345 26.6667 29.2545 26.2749 30.7974 25.7049C32.3017 26.5616 33.332 28.165 33.332 30V31.6667H18.332V30C18.332 28.0583 19.4252 26.4217 20.7437 25.65Z" fill="#E32A2A"/>
<path id="Vector_2" d="M13.332 6.66602C9.6502 6.66602 6.66536 9.65102 6.66536 13.3327C6.66536 17.0143 9.6502 19.9993 13.332 19.9993C14.7144 19.9993 16.0237 19.5777 17.134 18.801C17.8885 18.2744 18.078 17.2127 17.5507 16.4577C17.0234 15.7027 16.0135 15.566 15.259 16.0927C14.7042 16.481 14.0257 16.666 13.332 16.666C11.491 16.666 9.9987 15.1743 9.9987 13.3327C9.9987 11.491 11.491 9.99935 13.332 9.99935C13.8757 9.99935 14.373 10.1193 14.8424 10.3643C15.659 10.7893 16.7094 10.5027 17.134 9.68603C17.5589 8.87103 17.2215 7.81933 16.405 7.396C15.4632 6.906 14.4144 6.66602 13.332 6.66602ZM8.4362 22.2393C5.37936 23.501 3.33203 26.5927 3.33203 29.9993V33.3327C3.33203 34.2527 4.0782 34.9993 4.9987 34.9993H11.6654C12.5859 34.9993 13.332 34.2527 13.332 33.3327C13.332 32.4127 12.5859 31.666 11.6654 31.666H6.66536V29.9993C6.66536 28.126 7.77653 26.406 9.05369 25.6494C10.2549 26.156 11.5255 26.5394 12.6555 26.6344C13.5729 26.7127 14.4 26.021 14.4779 25.1027C14.5557 24.186 13.8929 23.4094 12.9757 23.331C12.244 23.2694 11.4444 23.0493 10.5195 22.656C10.2962 22.561 10.1665 22.486 9.73836 22.291C9.31853 22.0993 8.86253 22.0627 8.4362 22.2393Z" fill="#E32A2A"/>
</g>
</g>
</svg>
