<svg width="100%" height="100%" viewBox="0 0 40 40" fill="none" xmlns="http://www.w3.org/2000/svg">
<g id="icon_40_technology">
<g id="Icon">
<path id="Union" fill-rule="evenodd" clip-rule="evenodd" d="M18.44 38.0894C18.44 38.9523 19.1395 39.6519 20.0025 39.6519C20.8654 39.6519 21.565 38.9523 21.565 38.0894V34.2808H26.1143C26.7901 35.8244 28.3311 36.9029 30.124 36.9029C32.5403 36.9029 34.499 34.9441 34.499 32.5279C34.499 30.1116 32.5403 28.1529 30.124 28.1529C28.187 28.1529 26.5441 29.4116 25.9685 31.1558H21.565V15.9747H26.0942C26.7591 17.5433 28.3131 18.6436 30.124 18.6436C32.5403 18.6436 34.499 16.6848 34.499 14.2686C34.499 11.8523 32.5403 9.89359 30.124 9.89359C28.2702 9.89359 26.6856 11.0467 26.0484 12.6747H21.565V6.68504L23.4625 8.58258C24.0727 9.19278 25.062 9.19278 25.6722 8.58258C26.2824 7.97239 26.2824 6.98307 25.6722 6.37288L20.0025 0.703125L14.3327 6.37288C13.7225 6.98307 13.7225 7.97239 14.3327 8.58258C14.9429 9.19278 15.9322 9.19278 16.5424 8.58258L18.44 6.68504L18.44 22.0249H13.9918C13.3839 20.3393 11.7702 19.1343 9.875 19.1343C7.45875 19.1343 5.5 21.0931 5.5 23.5093C5.5 25.9256 7.45875 27.8843 9.875 27.8843C11.7111 27.8843 13.283 26.7533 13.932 25.1499H18.44L18.44 38.0894ZM30.124 33.7779C29.4337 33.7779 28.874 33.2182 28.874 32.5279C28.874 31.8375 29.4337 31.2779 30.124 31.2779C30.8144 31.2779 31.374 31.8375 31.374 32.5279C31.374 33.2182 30.8144 33.7779 30.124 33.7779ZM28.874 14.2686C28.874 14.9589 29.4337 15.5186 30.124 15.5186C30.8144 15.5186 31.374 14.9589 31.374 14.2686C31.374 13.5782 30.8144 13.0186 30.124 13.0186C29.4337 13.0186 28.874 13.5782 28.874 14.2686ZM9.875 22.2593C10.5654 22.2593 11.125 22.819 11.125 23.5093C11.125 24.1997 10.5654 24.7593 9.875 24.7593C9.18464 24.7593 8.625 24.1997 8.625 23.5093C8.625 22.819 9.18464 22.2593 9.875 22.2593Z" fill="#E32A2A"/>
</g>
</g>
</svg>
