<svg width="100%" height="100%" viewBox="0 0 40 40" fill="none" xmlns="http://www.w3.org/2000/svg">
<g id="icon_40">
<g id="Union">
<path fill-rule="evenodd" clip-rule="evenodd" d="M8.82422 7.84961C8.82422 7.0557 9.46781 6.41211 10.2617 6.41211H16.7879V13.7121C16.7879 16.2319 18.8306 18.2746 21.3504 18.2746H27.8766V20.5703C27.8766 21.4332 28.5762 22.1328 29.4391 22.1328C30.302 22.1328 31.0016 21.4332 31.0016 20.5703V16.0955L19.0287 3.28711H10.2617C7.74192 3.28711 5.69922 5.32981 5.69922 7.84961V30.7644C5.69922 33.2842 7.74192 35.3269 10.2617 35.3269H24.2457C25.1086 35.3269 25.8082 34.6274 25.8082 33.7644C25.8082 32.9015 25.1086 32.2019 24.2457 32.2019H10.2617C9.46781 32.2019 8.82422 31.5583 8.82422 30.7644V7.84961ZM25.8397 15.1496L19.9129 8.80925V13.7121C19.9129 14.506 20.5565 15.1496 21.3504 15.1496H25.8397Z" fill="#E32A2A"/>
<path d="M35.3251 20.8086C35.7535 20.0599 36.7078 19.7997 37.4567 20.2279C38.2059 20.6561 38.4661 21.6106 38.0379 22.3598L36.7069 21.599C38.0379 22.3598 38.0381 22.3595 38.0379 22.3598L38.036 22.3631L38.0326 22.3691L38.021 22.389L37.9799 22.4596C37.9445 22.5197 37.8936 22.6055 37.8284 22.7129C37.6982 22.9277 37.5105 23.2303 37.2761 23.589C36.8098 24.3025 36.1471 25.256 35.3753 26.1871C34.6156 27.1036 33.6902 28.0722 32.6884 28.7532C31.7288 29.4057 30.3644 30.0157 28.9127 29.5427C28.1537 29.2955 27.4718 28.8637 26.8896 28.428C26.3135 27.9968 25.7496 27.4951 25.2444 27.0455L25.2197 27.0235C24.6866 26.5491 24.2148 26.1307 23.7547 25.7863C23.2911 25.4394 22.9262 25.2355 22.636 25.141C22.4374 25.0763 22.1231 25.0768 21.6026 25.3629C21.0764 25.6522 20.5084 26.1473 19.9559 26.7519C19.4144 27.3445 18.9475 27.976 18.6123 28.4674C18.4462 28.7109 18.3159 28.9149 18.2285 29.0555C18.1849 29.1257 18.1523 29.1799 18.1314 29.2148L18.1091 29.2525L18.1052 29.2591L16.7999 28.507C18.1052 29.2591 18.1054 29.2588 18.1052 29.2591L18.1046 29.2602C17.6735 30.007 16.7187 30.2635 15.9713 29.8329C15.2236 29.4021 14.9667 28.4467 15.3975 27.699L16.7514 28.479C15.3975 27.699 15.3973 27.6993 15.3975 27.699L15.3995 27.6955L15.4028 27.6898L15.4131 27.6723L15.448 27.6132C15.4776 27.5636 15.5198 27.4939 15.5736 27.4072C15.6811 27.2341 15.8358 26.992 16.0307 26.7064C16.4174 26.1395 16.976 25.3804 17.6489 24.6439C18.3108 23.9196 19.146 23.1473 20.0973 22.6244C21.0543 22.0983 22.2916 21.7421 23.6041 22.1697C24.363 22.4169 25.0449 22.8487 25.6271 23.2844C26.2033 23.7156 26.7672 24.2174 27.2724 24.667L27.2971 24.6889C27.8302 25.1633 28.3019 25.5817 28.7621 25.9261C29.2256 26.273 29.5906 26.4769 29.8807 26.5715C29.94 26.5908 30.2418 26.6378 30.9314 26.169C31.5789 25.7288 32.2857 25.0176 32.9694 24.1928C33.641 23.3827 34.2328 22.5334 34.6602 21.8794C34.8726 21.5544 35.0415 21.2821 35.1562 21.0929C35.2135 20.9984 35.2571 20.9249 35.2857 20.8762L35.3171 20.8225L35.324 20.8105L35.3251 20.8086Z" fill="#E32A2A"/>
</g>
</g>
</svg>
