<svg width="32" height="32" viewBox="0 0 32 32" fill="none" xmlns="http://www.w3.org/2000/svg">
<g id="icon_40">
<g id="Icon">
<path id="Vector" d="M20.666 4C17.3523 4 14.666 6.68667 14.666 10C14.666 13.3133 17.3523 16 20.666 16C23.9797 16 26.666 13.3133 26.666 10C26.666 6.68667 23.9797 4 20.666 4ZM10.666 5.33333C7.72055 5.33333 5.33268 7.72133 5.33268 10.6667C5.33268 13.612 7.72055 16 10.666 16C11.7719 16 12.8193 15.6627 13.7076 15.0413C14.3112 14.62 14.4628 13.7707 14.0409 13.1667C13.6191 12.5627 12.8112 12.4533 12.2076 12.8747C11.7637 13.1853 11.2209 13.3333 10.666 13.3333C9.19321 13.3333 7.99935 12.14 7.99935 10.6667C7.99935 9.19333 9.19321 8 10.666 8C11.1009 8 11.4988 8.09599 11.8743 8.29199C12.5276 8.63199 13.3679 8.40268 13.7076 7.74935C14.0475 7.09735 13.7776 6.25598 13.1244 5.91732C12.3709 5.52532 11.5319 5.33333 10.666 5.33333ZM20.666 6.66667C22.5069 6.66667 23.9993 8.15867 23.9993 10C23.9993 11.8413 22.5069 13.3333 20.666 13.3333C18.8251 13.3333 17.3327 11.8413 17.3327 10C17.3327 8.15867 18.8251 6.66667 20.666 6.66667ZM6.74935 17.792C4.30388 18.8013 2.66602 21.2747 2.66602 24V26.6667C2.66602 27.4027 3.26295 28 3.99935 28H9.33268C10.0691 28 10.666 27.4027 10.666 26.6667C10.666 25.9307 10.0691 25.3333 9.33268 25.3333H5.33268V24C5.33268 22.5013 6.22161 21.1253 7.24335 20.52C8.20428 20.9253 9.22082 21.232 10.1248 21.308C10.8587 21.3707 11.5204 20.8173 11.5827 20.0827C11.6449 19.3493 11.1147 18.728 10.3809 18.6654C9.79562 18.616 9.15588 18.44 8.41601 18.1253C8.23735 18.0493 8.13361 17.9893 7.79108 17.8333C7.45521 17.68 7.09041 17.6507 6.74935 17.792ZM16.0827 17.792C13.6372 18.8013 11.9993 21.2747 11.9993 24V26.6667C11.9993 27.4027 12.5963 28 13.3327 28H27.9993C28.7357 28 29.3327 27.4027 29.3327 26.6667V24C29.3327 21.3387 27.6857 18.9253 25.2493 17.8747C24.9064 17.7267 24.5068 17.7227 24.166 17.8747C22.9863 18.404 21.8369 18.6667 20.666 18.6667C19.4991 18.6667 18.3457 18.3893 17.1244 17.8333C16.7885 17.68 16.4237 17.6507 16.0827 17.792ZM16.5953 20.52C17.8551 20.9973 19.3739 21.3333 20.666 21.3333C21.948 21.3333 23.404 21.02 24.6383 20.564C25.8417 21.2493 26.666 22.532 26.666 24V25.3333H14.666V24C14.666 22.4467 15.5405 21.1373 16.5953 20.52Z" fill="#E32A2A"/>
<path id="Vector_2" d="M10.666 5.33301C7.72055 5.33301 5.33268 7.72101 5.33268 10.6663C5.33268 13.6117 7.72055 15.9997 10.666 15.9997C11.7719 15.9997 12.8193 15.6623 13.7076 15.041C14.3112 14.6197 14.4628 13.7703 14.0409 13.1663C13.6191 12.5623 12.8112 12.453 12.2076 12.8743C11.7637 13.185 11.2209 13.333 10.666 13.333C9.19321 13.333 7.99935 12.1397 7.99935 10.6663C7.99935 9.19301 9.19321 7.99967 10.666 7.99967C11.1009 7.99967 11.4988 8.09567 11.8743 8.29167C12.5276 8.63167 13.3679 8.40236 13.7076 7.74902C14.0475 7.09702 13.7776 6.25566 13.1244 5.91699C12.3709 5.52499 11.5319 5.33301 10.666 5.33301ZM6.74935 17.7917C4.30388 18.801 2.66602 21.2743 2.66602 23.9997V26.6663C2.66602 27.4023 3.26295 27.9997 3.99935 27.9997H9.33268C10.0691 27.9997 10.666 27.4023 10.666 26.6663C10.666 25.9303 10.0691 25.333 9.33268 25.333H5.33268V23.9997C5.33268 22.501 6.22161 21.125 7.24335 20.5197C8.20428 20.925 9.22082 21.2317 10.1248 21.3077C10.8587 21.3704 11.5204 20.817 11.5827 20.0824C11.6449 19.349 11.1147 18.7277 10.3809 18.665C9.79562 18.6157 9.15588 18.4397 8.41601 18.125C8.23735 18.049 8.13361 17.989 7.79108 17.833C7.45521 17.6797 7.09041 17.6503 6.74935 17.7917Z" fill="#E32A2A"/>
</g>
</g>
</svg>
