<svg width="220" height="36" viewBox="0 0 220 36" fill="none" xmlns="http://www.w3.org/2000/svg">
<g clip-path="url(#clip0_1360_178)">
<path d="M25.1333 23.9985L27.4054 8.28076H22.9901L20.2367 27.4883H31.8727L32.3572 23.9985H25.1333Z" fill="#131518"/>
<path d="M38.5478 8.28076L35.7913 27.4883H40.2066L42.96 8.28076H38.5478Z" fill="#131518"/>
<path d="M59.5111 8.28076L53.1519 21.8772L51.0516 8.28076H46.7283L50.3648 27.4883H54.3385L63.8314 8.28076H59.5111Z" fill="#131518"/>
<path d="M15.8275 10.1008C14.6011 8.7445 12.6356 7.82405 10.2134 7.79966C4.23743 7.73566 1.09155 11.3565 0.1717 17.7509V17.7753C-0.321952 21.2102 0.279015 23.8984 1.7661 25.6082C2.97417 26.9919 4.86906 27.7874 7.2576 27.9002C13.2182 28.1897 16.6554 24.322 17.3759 17.821C17.7837 14.2123 17.3453 11.7862 15.8275 10.1008ZM12.7951 17.9002C12.1144 22.6488 10.6181 24.575 7.79725 24.575C7.33762 24.5874 6.88102 24.4975 6.46086 24.3119C6.04069 24.1262 5.66759 23.8496 5.36884 23.5022C4.47352 22.475 4.24663 20.8414 4.67589 17.8515V17.8271C5.34431 13.2858 6.8222 11.1218 9.63081 11.1218C10.7193 11.1218 11.5594 11.4418 12.1113 12.0727C13.0067 13.1029 13.2244 14.8798 12.7951 17.9002Z" fill="#131518"/>
<path d="M67.5077 8.28076L64.7512 27.4883H76.697L77.16 24.2728H69.6264L70.4328 19.0122H77.206L77.6168 15.7663H70.8468L71.46 11.4962H78.5888L79.0487 8.28076H67.5077Z" fill="#131518"/>
<path d="M103.995 2.59104e-07C100.427 3.10339e-07 96.9396 1.05168 93.9732 3.02204C91.0068 4.9924 88.6948 7.79294 87.3296 11.0695C85.9644 14.346 85.6074 17.9514 86.3036 21.4296C86.9999 24.9079 88.7181 28.1028 91.2411 30.6103C93.7641 33.1178 96.9786 34.8253 100.478 35.5168C103.977 36.2083 107.604 35.8528 110.9 34.4952C114.196 33.1376 117.013 30.8389 118.995 27.8899C120.976 24.9408 122.034 21.4739 122.033 17.9274C122.033 15.5729 121.567 13.2414 120.66 11.0662C119.754 8.89093 118.425 6.9145 116.75 5.24974C115.075 3.58499 113.086 2.26453 110.898 1.36377C108.709 0.463015 106.364 -0.000400033 103.995 2.59104e-07ZM113.485 20.1158C111.513 28.6071 105.666 34.5138 100.426 33.3129C95.1859 32.1121 92.5337 24.2425 94.5052 15.7665C96.4768 7.29044 102.324 1.36849 107.567 2.56934C112.81 3.77019 115.459 11.6153 113.485 20.1066V20.1158Z" fill="#82DC28"/>
<path d="M109.471 9.53652C108.858 12.1059 106.889 13.834 105.044 13.4103C103.198 12.9867 102.186 10.5636 102.778 8.0004C103.37 5.43717 105.353 3.71209 107.199 4.13574C109.045 4.55939 110.066 6.97938 109.471 9.53652Z" fill="#FF5753"/>
<path d="M136.11 20.3779L144.107 8.19873H139.32L134.427 15.9829L131.787 8.19873H127.286L131.732 19.747L130.634 27.4032H135.049L136.079 20.4236L136.11 20.3779Z" fill="#131518"/>
<path d="M159.811 10.0124C158.585 8.65 156.604 7.72346 154.173 7.69907C148.163 7.63507 145.002 11.2742 144.079 17.699V17.7265C143.582 21.1766 144.186 23.877 145.683 25.596C146.909 26.9889 148.798 27.7844 151.202 27.9002C157.19 28.1897 160.645 24.3037 161.378 17.7691C161.78 14.1453 161.338 11.707 159.811 10.0124ZM156.764 17.8362C156.077 22.6091 154.574 24.5415 151.738 24.5415C151.277 24.5538 150.818 24.4633 150.396 24.2766C149.975 24.0899 149.6 23.8118 149.301 23.4625C148.399 22.4293 148.172 20.7865 148.602 17.7844V17.757C149.273 13.1852 150.748 11.0365 153.581 11.0365C154.676 11.0365 155.522 11.3565 156.074 11.9904C156.978 13.0237 157.211 14.8158 156.764 17.8362Z" fill="#131518"/>
<path d="M197.099 8.19873L195.272 21.3075L190.445 8.19873H185.88L183.123 27.4032H187.198L189.219 13.8799L194.116 27.4032H198.414L201.171 8.19873H197.099Z" fill="#131518"/>
<path d="M219.427 21.0391C218.857 24.9098 215.895 28.296 210.409 27.9577C207.791 27.79 206.077 26.7721 204.872 25.1384C203.697 23.5505 203.032 20.9172 203.615 17.3969C204.814 10.1827 208.438 7.56761 213.472 7.78706C216.94 7.9364 218.933 9.56395 220 12.6362L216.238 13.8797C215.959 12.9044 215.116 11.1885 213.037 11.0178C210.195 10.7831 208.438 13.2153 207.785 17.8267C207.398 20.527 207.171 24.093 210.655 24.4953C213.04 24.7696 214.849 23.7242 215.671 20.7312C215.744 20.4783 215.793 20.2191 215.818 19.9571H211.627L212.096 16.6807H219.89C219.917 16.7782 219.672 19.378 219.427 21.0391Z" fill="#131518"/>
<path d="M177.098 8.26599L175.418 20.0916C174.98 22.5147 174.958 23.1943 173.867 24.0934C172.833 24.9499 170.589 24.8798 169.485 23.7612C168.614 22.8804 168.952 21.0639 169.179 19.1895L170.58 8.25684H166.165L164.57 20.5671C164.144 23.7947 165.272 25.5412 167.412 26.9005C169.117 27.9825 171.472 28.1379 172.996 27.9307C175.703 27.5649 177.485 26.5043 178.53 24.7091C179.174 23.6058 179.475 22.4903 179.757 20.5549L181.492 8.26599H177.098Z" fill="#131518"/>
</g>
<defs>
<clipPath id="clip0_1360_178">
<rect width="220" height="35.8609" fill="white"/>
</clipPath>
</defs>
</svg>
