<svg width="80" height="28" viewBox="0 0 80 28" fill="none" xmlns="http://www.w3.org/2000/svg">
<g clip-path="url(#clip0_1555_881)">
<path d="M22.7534 28.1094C21.4545 28.1094 20.1996 27.5431 19.473 26.6391L11.129 15.8463C10.2044 14.6156 10.2044 13.0037 11.129 11.8275L19.473 1.50294C20.2216 0.566326 21.4325 0 22.7204 0C23.4689 0 24.2064 0.196036 24.8559 0.555436C25.8246 1.09998 26.4521 1.92769 26.6502 2.90787C26.8373 3.8227 26.5952 4.75932 25.9787 5.53257L19.352 13.6245L25.9787 22.5986C26.5952 23.3719 26.8263 24.3085 26.6392 25.2342C26.4411 26.2035 25.7916 27.0639 24.8449 27.5975C24.2064 27.946 23.4909 28.1203 22.7314 28.1203L22.7534 28.1094Z" fill="white"/>
<path d="M4.00688 28.1094C1.79429 28.1094 0 26.5411 0 24.6134V3.49598C0 1.56829 1.79429 0 4.00688 0C6.21947 0 7.96973 1.56829 7.96973 3.49598V24.6134C7.96973 26.5411 6.19745 28.1094 4.00688 28.1094Z" fill="white"/>
<path d="M39.6148 28.1094C37.4022 28.1094 35.6079 26.5411 35.6079 24.6134V3.49598C35.6079 1.56829 37.4132 0 39.6148 0C41.8164 0 43.5776 1.56829 43.5776 3.49598V24.6134C43.5776 26.5411 41.7944 28.1094 39.6148 28.1094Z" fill="white"/>
<path d="M61.9302 28.0984C59.7176 28.0984 57.9233 26.5083 57.9233 24.5589V12.8076C57.9233 10.8581 59.7176 9.26807 61.9302 9.26807C64.1428 9.26807 65.8931 10.8581 65.8931 12.8076V24.5589C65.8931 26.5083 64.1208 28.0984 61.9302 28.0984Z" fill="white"/>
<path d="M69.47 7.03552H54.3892C52.1766 7.03552 50.3823 5.46723 50.3823 3.53954C50.3823 1.61185 52.1766 0 54.3892 0H69.47C71.6936 0 73.4329 1.5574 73.4329 3.53954C73.4329 5.52168 71.6496 7.03552 69.47 7.03552Z" fill="white"/>
<path d="M75.5585 28.0983C73.2578 28.0983 71.3975 26.2468 71.3975 23.9815C71.3975 21.7162 73.2688 19.8647 75.5585 19.8647C77.8481 19.8647 79.7194 21.7162 79.7194 23.9815C79.7194 26.2468 77.8481 28.0983 75.5585 28.0983Z" fill="white"/>
</g>
<defs>
<clipPath id="clip0_1555_881">
<rect width="80" height="28" fill="white"/>
</clipPath>
</defs>
</svg>
