<svg width="200" height="30" viewBox="0 0 200 30" fill="none" xmlns="http://www.w3.org/2000/svg">
<path d="M7.59968 8.11122C7.46017 7.54674 7.49321 6.9499 7.57031 6.6407C7.76489 5.74904 8.38534 4.75312 10.188 4.75312C11.8621 4.75312 12.846 5.77061 12.846 7.29506V9.02804H19.9794V7.06136C19.9758 0.970757 14.3696 0 10.3275 0C5.24635 0 1.09773 1.65029 0.337763 6.22363C0.128497 7.47843 0.0954549 8.58221 0.396505 9.9988C1.63375 15.7227 11.796 17.3802 13.2756 21.0007C13.5509 21.6731 13.4702 22.5396 13.3306 23.0681C13.0957 24.0101 12.4495 24.9593 10.5368 24.9593C8.74881 24.9593 7.68045 23.9418 7.68045 22.4101L7.66943 19.7172H0V21.8564C0 28.116 5.01872 30 10.3936 30C15.7684 30 19.8032 28.2742 20.4934 23.5894C20.8385 21.1733 20.5779 19.6021 20.4641 19.0053C19.2562 13.1304 8.41471 11.3866 7.59968 8.11122ZM100.584 8.17953C100.455 7.62584 100.492 7.03979 100.558 6.73058C100.764 5.83533 101.377 4.85738 103.15 4.85738C104.802 4.85738 105.768 5.86409 105.768 7.37776V9.08917H112.817V7.13686C112.817 1.10379 107.295 0.154602 103.293 0.154602C98.2561 0.154602 94.1442 1.77972 93.3916 6.32071C93.1933 7.55753 93.1419 8.65412 93.4613 10.0527C94.6876 15.7119 104.747 17.355 106.208 20.936C106.465 21.6155 106.392 22.4784 106.26 22.989C106.039 23.9202 105.401 24.8586 103.502 24.8586C101.722 24.8586 100.654 23.8555 100.654 22.3454V19.6596H93.0648V21.7953C93.0648 27.983 98.0138 29.8526 103.348 29.8526C108.683 29.8526 112.673 28.1448 113.349 23.5103C113.672 21.1158 113.43 19.559 113.298 18.9693C112.115 13.1628 101.391 11.419 100.58 8.17593L100.584 8.17953ZM165.508 23.4348L158.775 0.891659H148.164V28.6014H155.184L154.776 5.33557L162.009 28.6014H172.186V0.891659H165.122L165.511 23.4348H165.508ZM30.6116 0.891659L25.3139 28.8926H33.0384L37.0292 2.97339L40.9244 28.8926H48.5939L43.3182 0.891659H30.608H30.6116ZM73.7976 0.891659L70.1887 22.7804L66.5835 0.891659H54.9196L54.3028 28.8926H61.4472L61.6418 2.97339L66.5577 28.8926H73.8086L78.7282 2.97339L78.9228 28.8926H86.0856L85.4468 0.891659H73.7976ZM140.238 0.891659H133.005V21.6047C133.016 21.9643 133.005 22.3706 132.943 22.669C132.792 23.3629 132.19 24.704 130.197 24.704C128.203 24.704 127.608 23.3665 127.469 22.669C127.396 22.3706 127.388 21.9643 127.396 21.6047V0.891659H120.167V20.9612C120.159 21.4789 120.2 22.536 120.229 22.8128C120.728 28.0441 124.936 29.7411 130.193 29.7411C135.45 29.7411 139.665 28.0441 140.175 22.8128C140.216 22.536 140.267 21.4789 140.238 20.9612V0.891659ZM189.885 13.1771V17.2615H192.815V21.3135C192.823 21.6767 192.804 22.065 192.742 22.3778C192.624 23.1328 191.894 24.4199 189.812 24.4199C187.73 24.4199 187.025 23.1328 186.901 22.3778C186.849 22.065 186.827 21.6731 186.827 21.3135V8.5139C186.827 8.06088 186.86 7.56472 186.956 7.1908C187.099 6.50767 187.716 5.16299 189.797 5.16299C191.985 5.16299 192.529 6.57958 192.654 7.1908C192.734 7.59348 192.742 8.26941 192.742 8.26941V9.82263H199.941V8.9058C199.941 8.9058 199.974 7.94583 199.886 7.05417C199.347 1.80129 194.926 0.140221 189.86 0.140221C184.793 0.140221 180.454 1.81568 179.822 7.05417C179.764 7.53236 179.679 8.39525 179.679 8.9058V20.6771C179.679 21.1913 179.697 21.5868 179.793 22.5252C180.263 27.6342 184.782 29.4427 189.838 29.4427C194.893 29.4427 199.413 27.6306 199.894 22.5252C199.978 21.5868 199.989 21.1913 200 20.6771V13.1735H189.885V13.1771Z" fill="#1428A0"/>
</svg>
