<svg width="211" height="35" viewBox="0 0 211 35" fill="none" xmlns="http://www.w3.org/2000/svg">
<g clip-path="url(#clip0_1360_856)">
<path d="M47.4805 17.6414L47.0682 17.3746C45.6496 15.956 43.661 15.3376 41.0177 15.4952C38.8109 15.6286 37.0649 16.5016 35.7311 17.314C35.7311 17.2897 35.7311 17.2776 35.7311 17.2534C35.7311 16.5622 35.8039 15.8105 35.8888 15.0829C35.9615 14.3433 36.0464 13.5915 36.0464 12.8762C36.0464 12.1608 35.9615 11.4575 35.719 10.8755C35.6584 10.73 35.5129 10.633 35.3431 10.633C34.6277 10.6451 33.2455 11.1301 32.906 11.4333L32.7241 11.8334C32.7241 12.6215 32.5422 14.8283 32.3603 15.0951L32.2633 15.3618C31.9602 18.5144 31.9602 21.2789 32.2391 23.6555C32.2754 23.898 32.7241 24.2496 33.0757 24.383C33.4637 24.5285 34.6762 24.2011 35.3795 23.9344L35.6463 23.898C35.8645 23.8737 35.9979 23.6919 35.9858 23.4372L35.9979 22.7582C36.5071 20.7091 38.5442 18.2598 40.9571 17.896C42.3272 17.6777 43.3943 18.0294 44.2552 18.963C44.3643 19.1328 44.6189 20.5999 43.7216 22.2975C43.0548 23.5464 41.7089 24.6134 39.9507 25.2681C38.2774 25.8986 36.4465 26.1533 34.1791 26.0805C34.0821 26.0199 32.0572 24.6497 32.0572 24.6497C30.2627 23.3887 28.0316 21.8124 26.0067 21.0486C25.6551 20.9152 25.0124 20.3817 24.6366 20.0664L24.4304 19.8967C23.2664 18.963 21.0354 17.4837 19.253 16.2955C19.253 16.2955 18.4527 15.7498 18.2951 15.6528C18.2951 15.5922 18.2951 15.4467 18.2951 15.4467C18.3436 15.3861 19.4712 14.7192 19.4712 14.7192C21.0354 13.7977 21.7629 13.349 21.9205 13.1187C21.8841 13.155 22.1266 12.9974 22.1266 12.9974C22.1388 12.9974 26.0188 10.7906 26.0188 10.7906C29.7534 8.74146 33.9851 6.41342 36.204 4.10962L36.3131 3.75799L36.3616 3.44274C36.5071 2.9456 36.5193 2.56972 36.398 2.13321C36.3616 2.01196 36.2525 1.86646 36.0949 1.84221C34.361 1.67246 32.1178 2.71522 30.0808 4.61888C29.62 5.05539 29.232 5.26152 28.8319 5.47977L28.5166 5.64953C26.2735 6.92268 21.2051 10.0752 18.5618 11.7606C18.7316 8.91121 19.2651 4.86139 19.9077 1.47845L19.835 1.07832L19.5561 0.569061L19.35 0.205304H19.2893C18.7558 -0.0735762 18.3314 0.0355508 18.0162 0.108302L17.4827 0.302306L16.7794 0.556935C16.646 0.581186 16.5369 0.666062 16.4884 0.79944C15.2274 3.855 14.1725 8.88696 13.9179 12.9125C11.3958 11.2999 9.05565 10.148 7.90375 9.59022L7.86738 9.56597L7.734 9.54172C7.32174 9.49322 6.82461 9.19009 6.3396 8.88696C6.2911 8.86271 5.38171 8.26858 5.38171 8.26858L3.91456 7.32281L3.52655 7.23793C2.89604 7.34706 1.68351 8.15945 1.31976 8.71721C1.27126 8.78996 1.25913 8.86271 1.25913 8.94759C1.25913 9.06884 1.29551 9.17797 1.31976 9.29922L1.38038 9.60235L1.45314 9.78423C2.1564 10.5117 3.93881 11.7121 5.67271 12.6458L7.69762 13.7128L10.7896 15.3982L11.3109 15.8226L11.6747 16.0287C11.6747 16.0287 11.7111 16.053 11.7353 16.0651C10.9108 16.6107 6.10922 19.8239 6.10922 19.8239L3.15067 21.7882C2.87179 21.9822 1.70777 22.5036 1.44101 22.6006C0.798374 22.8673 0.313365 23.2675 0.119361 23.6919L0.0344849 23.8616L0.119361 23.9707L0.349741 24.1405L0.652871 24.3345L0.980252 24.5527L1.28338 24.6012C1.80477 24.6255 2.56866 24.3224 4.01156 23.6919C5.33321 23.1098 8.92227 20.9394 10.4622 20.0179L11.1169 19.6299C11.3837 19.6542 11.6868 19.4238 11.9536 19.2176C12.2567 18.9751 12.9357 18.5629 13.3358 18.381C13.348 18.381 13.5784 18.2476 13.7966 18.1264C13.7966 18.1991 13.7966 18.2961 13.7966 18.2961C13.8694 23.0007 14.1361 26.4079 14.6454 29.0391V29.0876L14.706 29.1967C14.9606 29.5726 15.2395 30.676 15.5063 31.6581L16.0883 33.6224L16.258 33.8043C16.5854 34.0347 17.6039 34.4227 18.2829 34.3378L18.4527 34.3135L18.5618 34.071C18.6224 33.78 18.6346 33.489 18.6346 33.1738C18.6346 32.8221 18.6103 32.422 18.5739 31.937L18.5254 31.2337C18.3072 27.9599 18.1011 23.219 18.1011 20.0664V19.8118C18.6588 20.1634 21.096 21.6912 21.096 21.6912C25.2428 24.383 31.5116 28.4449 35.2946 29.5241C35.4886 29.5847 35.6948 29.5362 35.8403 29.4028L36.4223 29.027L36.5314 28.9785C36.7496 28.8693 36.8951 28.5056 36.9194 28.1176C40.1083 27.9599 44.5583 26.7232 46.947 23.7282C47.8685 22.5642 48.2807 21.1456 48.2807 19.933C48.2807 18.9388 48.0019 18.0779 47.5047 17.605" fill="#FCAF16"/>
<path d="M130.524 25.5005H116.604V20.5898H130.524V25.5005ZM133.446 18.0435H113.682V28.0589H133.446V18.0435Z" fill="#776C61"/>
<path d="M133.33 12.6338V4.8252H113.82V7.34724H130.384V12.646H111.589V15.1801H135.549V12.6338H133.33Z" fill="#776C61"/>
<path d="M161.424 16.8787V14.3445H137.488V16.8787H142.969V19.6311C140.847 20.5162 139.489 21.947 139.489 23.9355C139.489 27.5246 143.951 29.3313 149.456 29.3313C154.961 29.3313 159.423 27.5246 159.423 23.9355C159.423 21.9713 158.089 20.5405 156.004 19.6553V16.8787H161.448H161.424ZM145.891 16.8787H153.057V18.8308C151.942 18.6368 150.729 18.5398 149.444 18.5398C148.159 18.5398 146.995 18.6368 145.891 18.8187V16.8787ZM156.331 23.9355C156.331 25.9241 153.239 26.8092 149.444 26.8092C145.649 26.8092 142.557 25.9241 142.557 23.9355C142.557 21.947 145.636 21.074 149.444 21.074C153.251 21.074 156.331 21.9713 156.331 23.9355ZM149.456 13.2532C154.342 13.2532 158.307 11.5921 158.307 8.28189C158.307 4.9717 154.342 3.31055 149.456 3.31055C144.569 3.31055 140.605 4.94745 140.605 8.28189C140.605 11.6163 144.569 13.2532 149.456 13.2532ZM149.444 5.79622C152.633 5.79622 155.215 6.57223 155.215 8.28189C155.215 9.99154 152.633 10.7797 149.444 10.7797C146.255 10.7797 143.672 10.0158 143.672 8.28189C143.672 6.54798 146.255 5.79622 149.444 5.79622Z" fill="#776C61"/>
<path d="M210.753 17.7998V20.334H200.41V28.2639H197.476V20.334H187.242V17.7998H210.753Z" fill="#776C61"/>
<path d="M200.698 7.54207H208.422V5.02002H189.313V7.54207H197.146C195.667 12.4164 188.1 13.1075 188.719 13.059V15.4841C192.005 15.1931 196.455 13.6653 198.916 10.8765C201.378 13.6532 205.827 15.181 209.113 15.4841V13.059C209.732 13.1075 202.178 12.4285 200.686 7.54207" fill="#776C61"/>
<path d="M181.841 28.0087H184.752V4.8374H181.841V28.0087ZM173.487 9.08123V7.77171H179.089V5.24966H164.551V7.77171H170.25V9.08123C169.037 16.9262 163.799 18.163 163.799 18.163V20.5881C166.467 20.0303 169.862 17.3749 171.862 14.0404C173.863 17.3749 177.27 20.0303 179.926 20.5881V18.163C179.926 18.163 174.688 16.9141 173.475 9.0691" fill="#776C61"/>
<path d="M84.5236 4.81445H96.0061C101.475 4.81445 104.324 6.63324 104.324 10.5982C104.324 13.4234 102.36 15.3634 99.7286 15.8848V15.9818C103.487 16.4304 105.27 18.8918 105.27 21.6806C105.27 25.1727 102.711 28.1798 96.3699 28.1798H84.5236V4.81445ZM88.246 14.6601H95.8243C98.6373 14.6601 100.723 13.5931 100.723 11.0953C100.723 8.9249 99.6922 7.46988 95.3999 7.46988H88.246V14.648V14.6601ZM88.246 25.5243H95.5939C100.153 25.5243 101.365 23.7419 101.365 21.4745C101.365 18.7948 99.5103 17.3034 95.3999 17.3034H88.246V25.5243Z" fill="#776C61"/>
<path d="M59.2422 4.81445H62.9768V15.2664L75.5385 4.81445H80.8251L67.548 15.3634L81.9285 28.1798H76.6419L62.9768 15.6544V28.1798H59.2422V4.81445Z" fill="#776C61"/>
</g>
<defs>
<clipPath id="clip0_1360_856">
<rect width="210.761" height="34.375" fill="white"/>
</clipPath>
</defs>
</svg>
