<svg width="168" height="28" viewBox="0 0 168 28" fill="none" xmlns="http://www.w3.org/2000/svg">
<g clip-path="url(#clip0_1549_569)">
<path d="M19.1929 18.6656L20.9279 6.44067H17.5562L15.4536 21.3798H24.3394L24.7093 18.6656H19.1929Z" fill="white"/>
<path d="M29.4365 6.44067L27.3315 21.3798H30.7032L32.8058 6.44067H29.4365Z" fill="white"/>
<path d="M45.445 6.44067L40.5889 17.0157L38.985 6.44067H35.6836L38.4605 21.3798H41.495L48.7441 6.44067H45.445Z" fill="white"/>
<path d="M12.0867 7.85609C11.1501 6.8012 9.64927 6.08529 7.79954 6.06632C3.23608 6.01654 0.833775 8.83275 0.131345 13.8062V13.8251C-0.245626 16.4967 0.213294 18.5875 1.34889 19.9174C2.27141 20.9936 3.71842 21.6124 5.5424 21.7001C10.0941 21.9253 12.7189 18.917 13.2691 13.8607C13.5805 11.054 13.2457 9.167 12.0867 7.85609ZM9.77103 13.9223C9.25123 17.6156 8.10861 19.1138 5.95449 19.1138C5.60351 19.1234 5.25483 19.0535 4.93397 18.9091C4.61312 18.7648 4.3282 18.5496 4.10007 18.2794C3.41637 17.4805 3.24311 16.2099 3.57091 13.8844V13.8654C4.08134 10.3333 5.20991 8.65022 7.35466 8.65022C8.18587 8.65022 8.82743 8.89913 9.24888 9.38983C9.93258 10.1911 10.0988 11.5731 9.77103 13.9223Z" fill="white"/>
<path d="M51.5512 6.44067L49.4463 21.3798H58.5685L58.9221 18.8789H53.1692L53.785 14.7874H58.9572L59.2709 12.2627H54.1011L54.5693 8.9416H60.0132L60.3644 6.44067H51.5512Z" fill="white"/>
<path d="M79.4143 2.01525e-07C76.6898 2.41375e-07 74.0266 0.817975 71.7613 2.35048C69.496 3.88298 67.7305 6.06118 66.688 8.6096C65.6455 11.158 65.3728 13.9622 65.9045 16.6675C66.4362 19.3728 67.7483 21.8577 69.675 23.808C71.6016 25.7583 74.0563 27.0863 76.7284 27.6242C79.4006 28.162 82.1703 27.8855 84.6873 26.8296C87.2042 25.7737 89.3554 23.9858 90.8686 21.6921C92.3819 19.3984 93.1894 16.7019 93.189 13.9435C93.189 12.1123 92.8326 10.2989 92.1404 8.60704C91.4481 6.91517 90.4334 5.37794 89.1543 4.08313C87.8752 2.78833 86.3567 1.7613 84.6855 1.06071C83.0143 0.360123 81.2231 -0.000311137 79.4143 2.01525e-07ZM86.661 15.6456C85.1555 22.2499 80.6904 26.8441 76.6889 25.9101C72.6874 24.9761 70.662 18.8553 72.1676 12.2628C73.6731 5.67035 78.1382 1.06438 82.1421 1.99838C86.1459 2.93237 88.1689 9.03415 86.661 15.6385V15.6456Z" fill="white"/>
<path d="M83.5963 7.41735C83.1281 9.41572 81.6249 10.7598 80.2153 10.4303C78.8058 10.1008 78.0331 8.21622 78.485 6.22259C78.9369 4.22896 80.4518 2.88723 81.8613 3.21674C83.2709 3.54625 84.0506 5.42846 83.5963 7.41735Z" fill="white"/>
<path d="M103.938 15.8494L110.045 6.37671H106.39L102.653 12.4311L100.637 6.37671H97.1997L100.595 15.3587L99.7565 21.3135H103.128L103.915 15.885L103.938 15.8494Z" fill="white"/>
<path d="M122.038 7.78719C121.101 6.72756 119.589 6.00691 117.732 5.98795C113.143 5.93817 110.729 8.7686 110.024 13.7657V13.787C109.645 16.4705 110.106 18.5708 111.248 19.9078C112.185 20.9911 113.627 21.6098 115.463 21.6999C120.036 21.9251 122.675 18.9027 123.234 13.8202C123.541 11.0017 123.204 9.10522 122.038 7.78719ZM119.71 13.8724C119.186 17.5847 118.039 19.0876 115.873 19.0876C115.52 19.0972 115.17 19.0268 114.848 18.8816C114.526 18.7364 114.24 18.5201 114.011 18.2484C113.323 17.4448 113.15 16.1671 113.477 13.8321V13.8107C113.99 10.2549 115.116 8.5837 117.28 8.5837C118.116 8.5837 118.762 8.8326 119.184 9.32567C119.874 10.1293 120.052 11.5232 119.71 13.8724Z" fill="white"/>
<path d="M150.512 6.37671L149.117 16.5724L145.431 6.37671H141.945L139.84 21.3135H142.952L144.495 10.7954L148.234 21.3135H151.517L153.622 6.37671H150.512Z" fill="white"/>
<path d="M167.562 16.3638C167.127 19.3744 164.865 22.0081 160.676 21.745C158.677 21.6146 157.368 20.8228 156.448 19.5522C155.551 18.3172 155.043 16.269 155.488 13.531C156.403 7.91996 159.171 5.88603 163.015 6.05671C165.663 6.17286 167.185 7.43874 168 9.82824L165.127 10.7954C164.914 10.0368 164.27 8.70224 162.683 8.56949C160.512 8.38695 159.171 10.2786 158.672 13.8653C158.377 15.9656 158.204 18.7391 160.863 19.052C162.685 19.2654 164.067 18.4523 164.694 16.1244C164.75 15.9276 164.787 15.7261 164.806 15.5223H161.606L161.964 12.974H167.916C167.937 13.0498 167.75 15.0719 167.562 16.3638Z" fill="white"/>
<path d="M135.239 6.42899L133.956 15.6267C133.621 17.5113 133.604 18.0399 132.771 18.7392C131.982 19.4054 130.268 19.3508 129.425 18.4808C128.76 17.7958 129.017 16.3829 129.191 14.925L130.261 6.42188H126.889L125.672 15.9965C125.346 18.5069 126.208 19.8652 127.842 20.9225C129.144 21.764 130.942 21.8849 132.106 21.7237C134.173 21.4393 135.534 20.6143 136.332 19.2181C136.824 18.3599 137.053 17.4923 137.269 15.987L138.594 6.42899H135.239Z" fill="white"/>
</g>
<defs>
<clipPath id="clip0_1549_569">
<rect width="168" height="27.8918" fill="white"/>
</clipPath>
</defs>
</svg>
