<svg width="220" height="28" viewBox="0 0 220 28" fill="none" xmlns="http://www.w3.org/2000/svg">
<path d="M13.5219 0.600586H0V26.9851H13.5219C20.9585 26.9851 27.0148 21.0551 27.0148 13.761C27.0148 6.46694 20.9657 0.600586 13.5219 0.600586ZM13.5219 23.9388H3.15823V3.65392H13.5291C19.2457 3.65392 23.8999 8.18444 23.8999 13.761C23.8999 19.3376 19.2457 23.9317 13.5291 23.9317L13.5219 23.9388Z" fill="#111111"/>
<path d="M206.507 0.721191H192.985V26.936H196.129V22.8366H206.507C214.702 22.8366 220 18.4828 220 11.7471C220 5.01141 214.702 0.721191 206.507 0.721191ZM196.136 3.77452H206.507C211.523 3.77452 216.878 5.86662 216.878 11.7471C216.878 17.6276 211.523 19.7904 206.507 19.7904H196.136V3.77452Z" fill="#111111"/>
<path d="M92.9533 17.0334L71.9804 0.572266H63.1923V26.9921H66.2782V3.73868H71.1854L92.9606 20.7653V26.9921H96.0104V0.600537H92.9533V17.0334Z" fill="#111111"/>
<path d="M24.6982 26.9923H28.3623L28.5864 26.6601C29.3958 25.4656 30.2197 24.257 31.0508 23.0343H54.9507L57.6464 26.9923H61.3467L43.0188 0L24.691 26.9923H24.6982ZM34.7511 17.5849C36.1242 15.5635 37.4974 13.5562 38.8344 11.5914L39.8895 10.0576L43.0188 5.39987C43.438 6.02892 43.821 6.62262 44.1969 7.20926L44.2185 7.23753C44.8328 8.18463 45.4182 9.08225 46.0903 10.0718L47.1672 11.5914L52.8838 19.9951H33.1105L34.7511 17.592V17.5849Z" fill="#111111"/>
<path d="M148.669 17.0334L127.689 0.572266H118.908V26.9921H121.994V3.73868H126.894L148.676 20.7653V26.9921H151.726V0.600537H148.669V17.0334Z" fill="#111111"/>
<path d="M154.103 26.9923H157.767L157.991 26.6601C158.801 25.4656 159.625 24.257 160.448 23.0343H184.348L187.044 26.9923H190.744L172.424 0L154.096 26.9923H154.103ZM164.272 17.4294C165.609 15.4646 166.946 13.5068 168.246 11.5914L169.302 10.0576L172.431 5.39987C172.857 6.04305 173.248 6.65089 173.631 7.23753C174.245 8.18463 174.83 9.08225 175.502 10.0718L176.579 11.5914L182.296 19.9951H162.523L164.272 17.4294Z" fill="#111111"/>
<path d="M115.605 9.15307V8.41801C115.605 3.97937 111.775 0.367676 107.063 0.367676C102.351 0.367676 98.5203 3.69666 98.5203 7.7819C98.5203 13.2807 103.03 14.3338 106.658 15.182C109.961 15.9029 112.49 16.6875 112.49 19.6348C112.49 22.0025 110.004 24.0027 107.063 24.0027C104.121 24.0027 101.635 21.741 101.635 18.9633V18.2283H98.5203V18.9633C98.5203 23.4232 102.351 27.049 107.063 27.049C111.775 27.049 115.605 23.72 115.605 19.6348C115.605 14.1571 111.103 13.0899 107.482 12.2417H107.467C104.165 11.5208 101.635 10.7363 101.635 7.78897C101.635 5.37882 104.071 3.42101 107.063 3.42101C110.055 3.42101 112.49 5.71101 112.49 8.42508V9.16014H115.605V9.15307Z" fill="#111111"/>
</svg>
