<svg width="124" height="44" viewBox="0 0 124 44" fill="none" xmlns="http://www.w3.org/2000/svg">
<g clip-path="url(#clip0_1360_1371)">
<path d="M35.2678 44.1719C33.2544 44.1719 31.3093 43.282 30.1832 41.8615L17.25 24.9012C15.8168 22.9673 15.8168 20.4344 17.25 18.5861L30.1832 2.36177C31.3435 0.889942 33.2203 0 35.2166 0C36.3768 0 37.52 0.308057 38.5267 0.872827C40.0282 1.72854 41.0007 3.02922 41.3078 4.56951C41.5979 6.00711 41.2225 7.47893 40.267 8.69404L29.9955 21.4099L40.267 35.5121C41.2225 36.7272 41.5808 38.199 41.2908 39.6537C40.9836 41.1769 39.977 42.5289 38.5096 43.3675C37.52 43.9152 36.411 44.189 35.2337 44.189L35.2678 44.1719Z" fill="#E11737"/>
<path d="M6.21066 44.1719C2.78115 44.1719 0 41.7074 0 38.6782V5.49368C0 2.46445 2.78115 0 6.21066 0C9.64018 0 12.3531 2.46445 12.3531 5.49368V38.6782C12.3531 41.7074 9.60605 44.1719 6.21066 44.1719Z" fill="#E11737"/>
<path d="M61.4027 44.1719C57.9732 44.1719 55.1921 41.7074 55.1921 38.6782V5.49368C55.1921 2.46445 57.9903 0 61.4027 0C64.8152 0 67.5452 2.46445 67.5452 5.49368V38.6782C67.5452 41.7074 64.7811 44.1719 61.4027 44.1719Z" fill="#E11737"/>
<path d="M95.9915 44.1545C92.562 44.1545 89.7809 41.6558 89.7809 38.5924V20.1261C89.7809 17.0626 92.562 14.564 95.9915 14.564C99.4211 14.564 102.134 17.0626 102.134 20.1261V38.5924C102.134 41.6558 99.3869 44.1545 95.9915 44.1545Z" fill="#E11737"/>
<path d="M107.678 11.0558H84.3029C80.8734 11.0558 78.0923 8.59136 78.0923 5.56213C78.0923 2.53291 80.8734 0 84.3029 0H107.678C111.125 0 113.821 2.44734 113.821 5.56213C113.821 8.67693 111.057 11.0558 107.678 11.0558Z" fill="#E11737"/>
<path d="M117.115 44.1547C113.549 44.1547 110.666 41.2453 110.666 37.6855C110.666 34.1257 113.566 31.2163 117.115 31.2163C120.664 31.2163 123.565 34.1257 123.565 37.6855C123.565 41.2453 120.664 44.1547 117.115 44.1547Z" fill="#E11737"/>
</g>
<defs>
<clipPath id="clip0_1360_1371">
<rect width="124" height="44" fill="white"/>
</clipPath>
</defs>
</svg>
