<svg width="142" height="44" viewBox="0 0 142 44" fill="none" xmlns="http://www.w3.org/2000/svg">
<g clip-path="url(#clip0_1360_1138)">
<path d="M67.4452 2.76422C67.6627 2.89201 67.8252 3.01493 67.912 3.13663C68.1906 3.50539 68.3311 4.01775 68.3311 4.66642V7.81241C68.3311 13.5178 65.0306 17.5473 57.1699 18.196V22.1428C64.7423 22.1428 68.7478 19.5262 71.4593 15.1668C75.6885 22.486 84.1113 22.1476 89.2374 22.1476V36.8748H71.4618C70.841 36.8748 70.4317 36.7604 70.2239 36.5303C70.0235 36.2942 69.9258 35.9498 69.9258 35.4861V26.9926C69.9258 26.5618 69.8488 26.2356 69.6887 26.0177C69.536 25.8011 69.2293 25.7001 68.7637 25.7001H63.1708C63.4458 25.9447 63.6156 26.2599 63.6792 26.6494C63.7452 27.0315 63.7745 27.4112 63.7745 27.78V37.7096C63.7745 38.3619 63.992 38.9035 64.427 39.3343C65.0795 40.0195 66.15 40.3579 67.6432 40.3579L92.6784 40.353C94.2266 40.353 95.4119 39.5339 95.4119 37.1875V3.33987C95.4119 2.38086 94.7191 1.89893 93.3847 1.89893H88.6753C88.8036 2.08635 88.8941 2.28837 88.9588 2.50378C89.1421 3.15489 89.2362 4.11146 89.2362 6.07938V18.2057C81.5208 17.9915 74.5264 17.0021 75.3659 7.93776V4.0068C75.3659 3.17436 74.7647 2.76057 73.6112 2.76057H67.4452V2.76422Z" fill="#08529B"/>
<path d="M142 3.3113C142 2.35108 141.302 1.86914 139.965 1.86914H135.252C135.376 2.05413 135.472 2.25737 135.536 2.47278C135.719 3.12267 135.814 4.08411 135.814 6.05568V8.5031H129.991V11.9886H135.814V15.5971H129.991V19.0851H135.814V28.7786H116.471V26.8995H116.46C116.431 26.3701 116.212 25.9941 115.772 25.792L115.072 25.6521H109.42C109.638 25.7762 109.797 25.8979 109.887 26.0233C110.085 26.2898 110.212 26.6281 110.267 27.0309V37.2064C110.267 40.0214 111.682 40.3767 113.417 40.3767H138.878C141.02 40.3767 142 39.3508 142 37.2064V3.3113ZM135.823 36.8997H116.472V32.2666H135.823V36.8997Z" fill="#08529B"/>
<path d="M129.228 14.5118C129.228 11.5301 127.306 8.99381 124.349 7.43847H129.992V3.94928H120.44V2.49495C120.44 1.90591 120.208 1.50186 119.742 1.28767L119.039 1.14893H113.301C113.521 1.27184 113.674 1.39598 113.77 1.52133C114.048 1.89252 114.189 2.40245 114.189 3.05477L114.238 3.0499V3.94928H104.559V7.43847H110.201C107.244 8.99503 105.325 11.5301 105.325 14.5118C105.325 19.4857 110.673 22.779 117.276 22.779C123.88 22.779 129.227 19.4857 129.227 14.5118H129.228ZM111.059 14.6432C111.059 11.7114 113.84 8.93296 117.277 8.93296C120.715 8.93296 123.495 11.7126 123.495 14.6432C123.495 17.5738 120.707 19.6366 117.277 19.6366C113.847 19.6366 111.059 17.5786 111.059 14.6432Z" fill="#08529B"/>
<path d="M45.4661 25.8893C43.2446 31.389 39.5225 32.9444 39.5225 32.9444C50.4748 21.889 43.7859 9.1505 43.7859 9.1505C42.1693 6.29538 44.227 5.05037 44.227 5.05037C39.5225 6.22114 40.9925 10.1022 40.9925 10.1022C43.357 15.7102 42.8804 20.2655 42.0776 23.0829L40.527 22.2176L40.5514 22.1811C40.5514 22.1811 44.2246 7.76675 29.2435 2.71126L29.2313 -0.00146484H26.0701V17.8619L40.7714 26.2082C40.5038 26.7498 40.2203 27.2597 39.9246 27.7416L25.1585 19.2225L10.3302 27.7416C10.0345 27.2597 9.75101 26.7498 9.48219 26.2082L24.1834 17.8619V-0.000247828H21.0223L21.01 2.71248C6.03019 7.76797 9.70336 22.1823 9.70336 22.1823L9.7278 22.2188L8.17715 23.0841C7.37433 20.2667 6.89777 15.7114 9.26224 10.1034C9.26224 10.1034 10.7322 6.22357 6.02774 5.05159C6.02774 5.05159 8.0855 6.29659 6.46886 9.15171C6.46886 9.15171 -0.220072 21.8902 10.7322 32.9456C10.7322 32.9456 7.01019 31.3902 4.78869 25.8906C4.78869 25.8906 3.52886 23.2083 -0.00012207 23.7949C-0.00012207 23.7949 1.3318 24.3961 2.11385 26.8264C2.11385 26.8264 5.29213 36.8997 17.569 38.4368V44.001H23.5969V35.8007C23.5969 35.8007 17.2024 35.7496 12.3208 30.3996L13.836 29.5185C14.1183 29.785 18.7604 34.0628 25.0913 34.1748V34.1772C25.1036 34.1772 25.1158 34.1772 25.128 34.1772C25.1402 34.1772 25.1524 34.1772 25.1647 34.1772V34.1748C31.4968 34.0628 36.1377 29.785 36.42 29.5185L37.9352 30.3996C33.0535 35.7496 26.6591 35.8007 26.6591 35.8007V44.001H32.687V38.4368C44.9626 36.8997 48.1421 26.8264 48.1421 26.8264C48.9242 24.3961 50.2561 23.7949 50.2561 23.7949C46.7271 23.2095 45.4673 25.8906 45.4673 25.8906L45.4661 25.8893ZM37.6114 20.5722L37.5992 20.5856L29.3046 15.9597L29.2594 6.07631H29.3046C29.3046 6.07631 39.3014 8.78539 37.6114 20.5722ZM20.9502 6.07631H20.9954L20.9502 15.9597L12.6556 20.5856L12.6434 20.5722C10.9522 8.78539 20.9502 6.07631 20.9502 6.07631ZM25.1524 22.9588L33.4213 27.7757V27.7891L33.348 27.7477C30.3909 30.0747 27.5682 30.8438 25.128 30.8438C22.6865 30.8438 19.8651 30.0734 16.908 27.7477L16.8346 27.7891V27.7757L25.1537 22.9588H25.1524Z" fill="#08529B"/>
</g>
<defs>
<clipPath id="clip0_1360_1138">
<rect width="142" height="44" fill="white"/>
</clipPath>
</defs>
</svg>
