<svg width="168" height="28" viewBox="0 0 168 28" fill="none" xmlns="http://www.w3.org/2000/svg">
<g clip-path="url(#clip0_1555_842)">
<path d="M37.8472 14.0626L37.5185 13.8499C36.3877 12.7191 34.8026 12.2262 32.6956 12.3518C30.9366 12.4582 29.5448 13.1541 28.4816 13.8016C28.4816 13.7823 28.4816 13.7726 28.4816 13.7533C28.4816 13.2024 28.5396 12.6031 28.6073 12.0232C28.6652 11.4337 28.7329 10.8344 28.7329 10.2642C28.7329 9.69392 28.6652 9.13334 28.4719 8.66941C28.4236 8.55343 28.3076 8.47611 28.1723 8.47611C27.6021 8.48578 26.5002 8.87238 26.2296 9.11401L26.0846 9.43296C26.0846 10.0612 25.9397 11.8203 25.7947 12.0329L25.7174 12.2455C25.4757 14.7585 25.4757 16.9621 25.698 18.8565C25.727 19.0498 26.0846 19.3301 26.3649 19.4364C26.6742 19.5524 27.6407 19.2914 28.2013 19.0788L28.4139 19.0498C28.5879 19.0305 28.6942 18.8855 28.6846 18.6825L28.6942 18.1413C29.1002 16.5079 30.7239 14.5555 32.6473 14.2655C33.7395 14.0916 34.59 14.3719 35.2762 15.1161C35.3632 15.2514 35.5662 16.4209 34.851 17.774C34.3194 18.7695 33.2465 19.6201 31.8451 20.142C30.5113 20.6446 29.0518 20.8475 27.2445 20.7895C27.1671 20.7412 25.5531 19.649 25.5531 19.649C24.1226 18.6439 22.3442 17.3874 20.7301 16.7785C20.4498 16.6722 19.9376 16.2469 19.638 15.9956L19.4737 15.8603C18.5458 15.1161 16.7674 13.9369 15.3466 12.9897C15.3466 12.9897 14.7087 12.5548 14.5831 12.4775C14.5831 12.4292 14.5831 12.3132 14.5831 12.3132C14.6218 12.2649 15.5206 11.7333 15.5206 11.7333C16.7674 10.9987 17.3473 10.6411 17.473 10.4575C17.444 10.4865 17.6373 10.3608 17.6373 10.3608C17.6469 10.3608 20.7398 8.60176 20.7398 8.60176C23.7167 6.96834 27.0898 5.11263 28.8585 3.27625L28.9455 2.99596L28.9842 2.74466C29.1002 2.34839 29.1098 2.04877 29.0132 1.70083C28.9842 1.60417 28.8972 1.48819 28.7716 1.46886C27.3894 1.33355 25.6014 2.16475 23.9776 3.68219C23.6104 4.03013 23.3011 4.19444 22.9821 4.36841L22.7308 4.50373C20.9428 5.51857 16.9027 8.03151 14.7957 9.37497C14.931 7.10366 15.3563 3.87549 15.8686 1.17891L15.8106 0.859956L15.5883 0.454019L15.424 0.164064H15.3756C14.9504 -0.0582348 14.6121 0.0287517 14.3608 0.0867428L13.9355 0.241385L13.3749 0.444354C13.2686 0.463684 13.1816 0.531341 13.143 0.637658C12.1378 3.07328 11.2969 7.08433 11.094 10.2932C9.08361 9.00769 7.21823 8.0895 6.30004 7.64491L6.27104 7.62558L6.16473 7.60625C5.83611 7.56758 5.43984 7.32596 5.05323 7.08433C5.01457 7.065 4.28968 6.5914 4.28968 6.5914L3.1202 5.83752L2.81091 5.76986C2.30832 5.85685 1.34181 6.50442 1.05185 6.94901C1.01319 7.00701 1.00353 7.065 1.00353 7.13265C1.00353 7.2293 1.03252 7.31629 1.05185 7.41294L1.10018 7.65457L1.15817 7.79955C1.71875 8.37946 3.13953 9.33631 4.52165 10.0805L6.13573 10.9311L8.60035 12.2745L9.01595 12.6128L9.30591 12.7771C9.30591 12.7771 9.3349 12.7964 9.35423 12.8061C8.697 13.241 4.86959 15.8023 4.86959 15.8023L2.51129 17.3681C2.28899 17.5227 1.36114 17.9383 1.1485 18.0156C0.636249 18.2283 0.249643 18.5472 0.0949999 18.8855L0.0273438 19.0208L0.0949999 19.1078L0.278638 19.2431L0.520267 19.3978L0.781227 19.5717L1.02286 19.6104C1.43846 19.6297 2.04736 19.3881 3.19752 18.8855C4.25102 18.4216 7.11191 16.6915 8.33939 15.957L8.86131 15.6477C9.07394 15.667 9.31557 15.4834 9.52821 15.3191C9.76984 15.1257 10.3111 14.7971 10.63 14.6522C10.6397 14.6522 10.8233 14.5458 10.9973 14.4492C10.9973 14.5072 10.9973 14.5845 10.9973 14.5845C11.0553 18.3346 11.2679 21.0505 11.6739 23.1478V23.1865L11.7222 23.2735C11.9252 23.5731 12.1475 24.4526 12.3601 25.2355L12.824 26.8013L12.9593 26.9463C13.2203 27.1299 14.0322 27.4392 14.5734 27.3715L14.7087 27.3522L14.7957 27.1589C14.844 26.9269 14.8537 26.695 14.8537 26.4437C14.8537 26.1634 14.8344 25.8444 14.8054 25.4578L14.7667 24.8972C14.5928 22.2876 14.4284 18.5086 14.4284 15.9956V15.7926C14.873 16.0729 16.8157 17.2907 16.8157 17.2907C20.1212 19.4364 25.1181 22.6742 28.1337 23.5344C28.2883 23.5828 28.4526 23.5441 28.5686 23.4378L29.0325 23.1382L29.1195 23.0995C29.2935 23.0125 29.4095 22.7226 29.4288 22.4133C31.9707 22.2876 35.5178 21.3018 37.4219 18.9145C38.1564 17.9866 38.4851 16.8558 38.4851 15.8893C38.4851 15.0968 38.2628 14.4105 37.8665 14.0336" fill="white"/>
<path d="M104.042 20.3266H92.9462V16.4123H104.042V20.3266ZM106.371 14.3826H90.6169V22.366H106.371V14.3826Z" fill="white"/>
<path d="M106.279 10.0706V3.84619H90.7281V5.85655H103.931V10.0802H88.9497V12.1002H108.048V10.0706H106.279Z" fill="white"/>
<path d="M128.673 13.454V11.434H109.594V13.454H113.962V15.648C112.271 16.3536 111.189 17.494 111.189 19.0791C111.189 21.94 114.745 23.3801 119.133 23.3801C123.521 23.3801 127.078 21.94 127.078 19.0791C127.078 17.5134 126.015 16.3729 124.352 15.6673V13.454H128.692H128.673ZM116.292 13.454H122.004V15.0101C121.115 14.8554 120.148 14.7781 119.124 14.7781C118.099 14.7781 117.171 14.8554 116.292 15.0004V13.454ZM124.613 19.0791C124.613 20.6642 122.149 21.3698 119.124 21.3698C116.098 21.3698 113.634 20.6642 113.634 19.0791C113.634 17.494 116.089 16.7981 119.124 16.7981C122.158 16.7981 124.613 17.5134 124.613 19.0791ZM119.133 10.5641C123.028 10.5641 126.189 9.23998 126.189 6.60139C126.189 3.9628 123.028 2.63867 119.133 2.63867C115.238 2.63867 112.078 3.94347 112.078 6.60139C112.078 9.25931 115.238 10.5641 119.133 10.5641ZM119.124 4.62003C121.666 4.62003 123.724 5.2386 123.724 6.60139C123.724 7.96418 121.666 8.59242 119.124 8.59242C116.582 8.59242 114.523 7.98351 114.523 6.60139C114.523 5.21927 116.582 4.62003 119.124 4.62003Z" fill="white"/>
<path d="M167.994 14.1887V16.2087H159.75V22.5298H157.411V16.2087H149.253V14.1887H167.994Z" fill="white"/>
<path d="M159.979 6.01231H166.136V4.00195H150.903V6.01231H157.147C155.968 9.89771 149.937 10.4486 150.43 10.41V12.343C153.049 12.111 156.596 10.8932 158.558 8.67023C160.52 10.8836 164.067 12.1014 166.687 12.343V10.41C167.179 10.4486 161.158 9.90737 159.969 6.01231" fill="white"/>
<path d="M144.948 22.3266H147.268V3.85645H144.948V22.3266ZM138.289 7.23925V6.19542H142.754V4.18506H131.165V6.19542H135.708V7.23925C134.742 13.4926 130.566 14.4785 130.566 14.4785V16.4115C132.692 15.9669 135.399 13.8502 136.993 11.1923C138.588 13.8502 141.304 15.9669 143.421 16.4115V14.4785C143.421 14.4785 139.245 13.483 138.279 7.22959" fill="white"/>
<path d="M67.3748 3.8374H76.5277C80.8867 3.8374 83.158 5.28718 83.158 8.44769C83.158 10.6997 81.5922 12.2461 79.4949 12.6617V12.739C82.4911 13.0966 83.9119 15.0587 83.9119 17.2817C83.9119 20.0652 81.8725 22.4622 76.8176 22.4622H67.3748V3.8374ZM70.342 11.6855H76.3827C78.625 11.6855 80.2874 10.835 80.2874 8.84396C80.2874 7.11389 79.4659 5.95407 76.0444 5.95407H70.342V11.6759V11.6855ZM70.342 20.3455H76.1991C79.8332 20.3455 80.7997 18.9247 80.7997 17.1173C80.7997 14.9813 79.3209 13.7925 76.0444 13.7925H70.342V20.3455Z" fill="white"/>
<path d="M47.2229 3.8374H50.1998V12.1688L60.2129 3.8374H64.4269L53.8435 12.2461L65.3064 22.4622H61.0924L50.1998 12.4781V22.4622H47.2229V3.8374Z" fill="white"/>
</g>
<defs>
<clipPath id="clip0_1555_842">
<rect width="168" height="27.4008" fill="white"/>
</clipPath>
</defs>
</svg>
