<svg width="100" height="44" viewBox="0 0 100 44" fill="none" xmlns="http://www.w3.org/2000/svg">
<g clip-path="url(#clip0_1360_1034)">
<path d="M21.9438 44C34.0549 44 43.8876 34.1624 43.8876 22.0068C43.8876 9.85129 34.0549 0 21.9438 0C9.83264 0 0 9.84673 0 22.0023C0 34.1578 9.81899 43.9954 21.9438 43.9954" fill="#C30036"/>
<path d="M21.0616 12.3472V31.6528H27.1786V29.9143H22.8262V12.3472H21.0616Z" fill="white"/>
<path d="M14.9355 17.6172C16.3909 17.6172 17.5642 16.4308 17.5642 14.9798C17.5642 13.5288 16.3909 12.3379 14.9355 12.3379C13.4802 12.3379 12.3068 13.5288 12.3068 14.9798C12.3068 16.4308 13.4802 17.6172 14.9355 17.6172Z" fill="white"/>
<path d="M22.8217 3.59085C22.5943 3.58173 22.1577 3.56348 21.9485 3.56348C11.8202 3.56804 3.57935 11.8406 3.57935 21.993C3.57935 26.9255 5.48948 31.5477 8.95046 35.0246C12.4251 38.4924 17.0367 40.4089 21.953 40.4089C26.8693 40.4089 31.4582 38.4924 34.9283 35.0246C38.3983 31.5477 40.3176 26.9255 40.3176 21.993V21.1717H27.1968V22.8691H38.5666C38.5666 22.9056 38.5666 23.0881 38.5575 23.1337C37.9799 31.8169 30.7533 38.6932 21.953 38.6932C17.5006 38.6932 13.321 36.9547 10.1784 33.7972C7.02213 30.6534 5.28482 26.4646 5.28482 21.993C5.28482 17.5214 7.02213 13.3372 10.1784 10.1842C13.321 7.03128 17.496 5.29738 21.953 5.29738C22.144 5.29738 22.6125 5.29738 22.8262 5.3065V3.59085H22.8217Z" fill="white"/>
<path d="M60.3921 7.40563H53.7976V36.0469H74.0496V30.4711H60.3876V7.40563H60.3921ZM88.5575 25.1325H93.9286V30.138C92.9371 30.5167 91.0088 30.8954 89.1715 30.8954C83.2364 30.8954 81.258 27.8702 81.258 21.7286C81.258 15.5869 83.1409 12.4202 89.0759 12.4202C92.3732 12.4202 94.256 13.4606 95.8114 15.4454L99.9091 11.6628C97.4123 8.07181 93.0326 6.98584 88.935 6.98584C79.7026 6.98584 74.85 12.0415 74.85 21.6829C74.85 31.3243 79.2297 36.4713 88.8849 36.4713C93.3101 36.4713 97.6443 35.3397 100 33.6833V19.7893H88.5529V25.1325H88.5575Z" fill="#666464"/>
</g>
<defs>
<clipPath id="clip0_1360_1034">
<rect width="100" height="44" fill="white"/>
</clipPath>
</defs>
</svg>
